<svg id="Layer_1" data-name="Layer 1" xmlns="http://www.w3.org/2000/svg" viewBox="0 0 1119.19 540.07"><defs><style>.cls-1{fill:#412c26;}</style></defs><title>CFR_Signature_Brown</title><path class="cls-1" d="M1054.62,233.46c-4.52,8.28-9.73,13.12-16.69,13.12-6.42,0-9.08-4.69-8.78-13.12.56-16,10.47-43.5,25.43-43.5,5.4,0,9,3.74,8.73,12.34-.24,8.21-3.48,21.66-8.69,31.16m-.5-48.4c-23.76,0-41,20.38-41.67,42.8-.35,12.86,6.68,23.83,24.33,23.83,27.55,0,42.09-24.31,42.58-42.43.47-14.14-8.5-24.2-25.24-24.2" transform="translate(-92.31 -114.84)"/><path class="cls-1" d="M1211.5,219.17c0-5.51-2.85-9.1-7-9.1a5.94,5.94,0,0,0-6.11,6.1c0,4.35,4.05,5.51,4.05,11.15a10.43,10.43,0,0,1-2.87,6.89c-2.8,2.67-6.74,4.61-18.39,4.61h-28.28c-3.27,0-4.19-1.38-2.82-5.28,4.22-12.07,10-26.28,11.18-32.29,1.57-7.88-1.84-15.19-11.84-15.19-15.75,0-26,13.73-39.84,39.8h-.8s10-23.46,10-31.19c0-5.48-3.3-8.51-9.23-8.51-9.08,0-18.37,9.45-22.38,14.68l2.79,2.7a44.85,44.85,0,0,1,6.64-6.59c3.61-2.81,7.26-2.37,6.18,3.67-1.4,7.79-12,35.63-17.65,49.81h16.44c16.88-33.81,29.26-55.57,39.11-55.57,2.85,0,4.35,1.76,4.35,4.78,0,6.07-8.86,26.62-12.5,38.8-2.14,7.21-1.65,12,4.68,12h31.48c13.07,0,23.57-6.09,28.1-9.35,9-6.13,14.72-14.54,14.72-21.91" transform="translate(-92.31 -114.84)"/><polygon class="cls-1" points="96.77 224.34 96.77 205.09 18.52 205.09 18.52 335.43 40.56 335.43 40.56 278.5 91.48 278.5 91.48 259.2 40.56 259.2 40.56 224.34 96.77 224.34"/><path class="cls-1" d="M830.47,337.52c-13.27-13.17-29.62-20.74-51.74-20.73-38.32,0-69.1,27.71-69.09,69s27.67,67.32,67.09,67.32h.12c36.68,0,63.92-22.94,64-60.79v-4H777.05v18.53h39.58c-4.26,18-20.62,26.46-38.45,26.46-27.49,0-45.22-18.32-45.25-48.13.07-27.59,18.22-48.61,44.79-48.65,18.94,0,30.84,8.78,38,16Z" transform="translate(-92.31 -114.84)"/><path class="cls-1" d="M132.74,578.25V537.87h18c23.53,0,26.27,10.83,26.27,19s-3.39,21.43-26.11,21.43Zm31.67,16.66s-.17-.16,1-.3c19-2.23,33.57-17.35,33.57-38.27,0-22.85-17-37.64-43.36-37.64H110.84V649.54h21.9V595.37h5.33l44.06,54.17H210Z" transform="translate(-92.31 -114.84)"/><polygon class="cls-1" points="178.66 476.8 228.58 476.8 228.58 457.83 178.66 457.83 178.66 423.03 234.54 423.03 234.54 404.05 155.93 404.05 155.93 534.87 238.79 534.87 238.79 515.84 178.66 515.84 178.66 476.8"/><polygon class="cls-1" points="304.07 403.86 281.38 403.86 281.38 534.69 361.17 534.69 361.17 515.84 304.07 515.84 304.07 403.86"/><polygon class="cls-1" points="505.98 423.03 546.43 423.03 546.43 534.7 568.37 534.7 568.37 423.03 608.79 423.03 608.79 403.85 505.98 403.85 505.98 423.03"/><rect class="cls-1" x="643.04" y="403.85" width="22.76" height="130.84"/><path class="cls-1" d="M1053,601.78l-87.82-88V649.54h21.88V567c3.81,3.77,87.82,87.89,87.82,87.89V518.7H1053Z" transform="translate(-92.31 -114.84)"/><path class="cls-1" d="M1159.69,573.77c-16.15-8-23.4-14-23.4-23.4,0-14.22,14.6-16,19-16a36.21,36.21,0,0,1,25.51,10.19l11.11-15.85c-12.3-9.66-23.6-12.54-36.62-12.54-23.83,0-40.49,14.51-40.49,35.33,0,19.94,13.08,29.85,35.24,41.18,15.3,7.81,23,14.68,23,23.88,0,10.29-8.94,16.37-20.71,16.37-12.43,0-22.22-4.18-32.11-13.39l-12.38,15.5c14.24,13.15,29.18,16.84,42.87,16.84,29.59,0,44.49-16.78,44.49-37.28,0-21-15.89-31.09-35.49-40.86" transform="translate(-92.31 -114.84)"/><path class="cls-1" d="M201.05,215.67c-10.55,12.07-24,18.14-39,18.14-26.63,0-46.53-18-46.53-48.63,0-28,18.69-47.32,43.77-47.32,13.95,0,25.93,4.57,36.59,15.25l14.57-14.77c-13-13.75-29.69-20.23-50.92-20.23-38,0-67.24,29-67.24,67.7,0,40.6,27.81,67.72,66.92,67.72,23,0,41.26-7.77,54.41-22.71Z" transform="translate(-92.31 -114.84)"/><path class="cls-1" d="M796.67,215.94c-10.55,12.06-22.92,17.78-39.8,17.78-27.76,0-46.53-18-46.53-48.63,0-27.94,18.75-47.41,43.84-47.41,13.94,0,25.94,4.58,36.58,15.26l14.42-14.57c-12.52-13.83-29.6-20.26-50.83-20.26-39.09,0-67.25,29-67.25,67.7,0,40.6,27,67.72,66.93,67.72,24.09,0,42.08-7.41,55.23-22.36Z" transform="translate(-92.31 -114.84)"/><path class="cls-1" d="M448.83,252.39c30.89,0,48.71-16.76,53.76-39.25a83.67,83.67,0,0,0,1.49-16.5V119.77H482.14V196c0,24.48-12.07,36.67-33.12,36.67-21.7,0-34.69-12.59-34.69-36.67V119.77H392.41v76.87a80.47,80.47,0,0,0,1.53,16.51c5.16,22.49,23.38,39.24,54.89,39.24" transform="translate(-92.31 -114.84)"/><path class="cls-1" d="M566.31,166.77c3.82,3.77,88.48,89.2,88.48,89.2V119.77H633.45v84.31c-3.77-3.83-88.42-89.24-88.42-89.24V250.6h21.28Z" transform="translate(-92.31 -114.84)"/><rect class="cls-1" x="744.59" y="4.93" width="22.73" height="130.82"/><polygon class="cls-1" points="892.85 116.89 835.14 116.89 835.14 4.93 812.36 4.93 812.36 135.75 892.85 135.75 892.85 116.89"/><path class="cls-1" d="M296.27,136.47c-25.14,0-45.53,20-45.53,49.2s19.38,49.22,45.53,49.22,45.52-20,45.52-49.22-20.38-49.2-45.52-49.2m-68.52,49.18h0c0-39.28,29.42-68.56,68.52-68.56s68.54,29.28,68.53,68.56-28.23,68.57-68.53,68.57-68.56-29.3-68.52-68.57" transform="translate(-92.31 -114.84)"/><path class="cls-1" d="M281.22,335.91c-25.14,0-45.51,19.95-45.51,49.21s19.36,49.21,45.51,49.21,45.52-19.95,45.52-49.21-20.37-49.21-45.52-49.21M212.69,385.1h0c0-39.29,29.43-68.57,68.53-68.57s68.55,29.28,68.54,68.57-28.24,68.56-68.54,68.56-68.57-29.29-68.53-68.56" transform="translate(-92.31 -114.84)"/><polygon class="cls-1" points="451.16 277.35 501.08 277.35 501.08 258.38 451.16 258.38 451.16 223.58 507.04 223.58 507.04 204.6 428.43 204.6 428.43 335.43 511.28 335.43 511.28 316.4 451.16 316.4 451.16 277.35"/><rect class="cls-1" x="554.97" y="204.6" width="22.73" height="130.83"/><path class="cls-1" d="M408.85,379V338.6h18c23.51,0,26.27,10.82,26.27,19,0,8-3.4,21.42-26.11,21.42Zm31.67,16.66s-.17-.16,1-.3c19-2.23,33.58-17.36,33.58-38.27,0-22.86-17.05-37.65-43.37-37.65H387V450.27h21.9V396.1h5.33l44.06,54.17h27.82Z" transform="translate(-92.31 -114.84)"/><path class="cls-1" d="M549.18,599.72l-17-40.88-17.1,40.88Zm8,19.4h-50L494.44,649.5H471.57l61.35-139.43,61,139.43H569.76Z" transform="translate(-92.31 -114.84)"/><path class="cls-1" d="M861.72,535.43c-25.14,0-45.51,19.94-45.51,49.21s19.37,49.21,45.51,49.21,45.53-20,45.53-49.21-20.37-49.21-45.53-49.21m-68.53,49.19h0c0-39.3,29.44-68.57,68.53-68.57s68.56,29.27,68.53,68.57S902,653.18,861.72,653.18s-68.57-29.3-68.53-68.56" transform="translate(-92.31 -114.84)"/><path class="cls-1" d="M897.22,366.44c3.82,3.77,88.47,89.19,88.47,89.19V319.44H964.37v84.3l-88.43-89.23V450.27h21.28Z" transform="translate(-92.31 -114.84)"/></svg>