<?xml version="1.0" encoding="utf-8"?>
<!-- Generator: Adobe Illustrator 22.1.0, SVG Export Plug-In . SVG Version: 6.00 Build 0)  -->
<svg version="1.1" baseProfile="tiny" id="Layer_1" xmlns="http://www.w3.org/2000/svg" xmlns:xlink="http://www.w3.org/1999/xlink"
	 x="0px" y="0px" width="1119.2px" height="540.1px" viewBox="0 0 1119.2 540.1" xml:space="preserve">
<title>CFR_Signature_Brown</title>
<path fill="#FFFFFF" d="M962.3,118.6c-4.5,8.3-9.7,13.1-16.7,13.1c-6.4,0-9.1-4.7-8.8-13.1c0.6-16,10.5-43.5,25.4-43.5
	c5.4,0,9,3.7,8.7,12.3C970.8,95.7,967.5,109.1,962.3,118.6 M961.8,70.2c-23.8,0-41,20.4-41.7,42.8c-0.3,12.9,6.7,23.8,24.3,23.8
	c27.6,0,42.1-24.3,42.6-42.4C987.5,80.3,978.6,70.2,961.8,70.2"/>
<path fill="#FFFFFF" d="M1119.2,104.3c0-5.5-2.8-9.1-7-9.1c-3.3-0.1-6,2.5-6.1,5.8c0,0.1,0,0.2,0,0.3c0,4.4,4.1,5.5,4.1,11.1
	c-0.1,2.6-1.1,5-2.9,6.9c-2.8,2.7-6.7,4.6-18.4,4.6h-28.3c-3.3,0-4.2-1.4-2.8-5.3c4.2-12.1,10-26.3,11.2-32.3
	c1.6-7.9-1.8-15.2-11.8-15.2c-15.8,0-26,13.7-39.8,39.8h-0.8c0,0,10-23.5,10-31.2c0-5.5-3.3-8.5-9.2-8.5c-9.1,0-18.4,9.4-22.4,14.7
	l2.8,2.7c2-2.4,4.2-4.6,6.6-6.6c3.6-2.8,7.3-2.4,6.2,3.7c-1.4,7.8-12,35.6-17.7,49.8h16.4c16.9-33.8,29.3-55.6,39.1-55.6
	c2.9,0,4.4,1.8,4.4,4.8c0,6.1-8.9,26.6-12.5,38.8c-2.1,7.2-1.7,12,4.7,12h31.5c13.1,0,23.6-6.1,28.1-9.4
	C1113.5,120.1,1119.2,111.7,1119.2,104.3"/>
<polygon fill="#FFFFFF" points="96.8,224.3 96.8,205.1 18.5,205.1 18.5,335.4 40.6,335.4 40.6,278.5 91.5,278.5 91.5,259.2 
	40.6,259.2 40.6,224.3 "/>
<path fill="#FFFFFF" d="M738.2,222.7c-13.3-13.2-29.6-20.7-51.7-20.7c-38.3,0-69.1,27.7-69.1,69s27.7,67.3,67.1,67.3h0.1
	c36.7,0,63.9-22.9,64-60.8v-4h-63.8V292h39.6c-4.3,18-20.6,26.5-38.5,26.5c-27.5,0-45.2-18.3-45.2-48.1
	c0.1-27.6,18.2-48.6,44.8-48.6c18.9,0,30.8,8.8,38,16L738.2,222.7z"/>
<path fill="#FFFFFF" d="M40.4,463.4V423h18c23.5,0,26.3,10.8,26.3,19s-3.4,21.4-26.1,21.4L40.4,463.4z M72.1,480.1
	c0,0-0.2-0.2,1-0.3c19-2.2,33.6-17.3,33.6-38.3c0-22.8-17-37.6-43.4-37.6H18.5v130.8h21.9v-54.2h5.3l44.1,54.2h27.9L72.1,480.1z"/>
<polygon fill="#FFFFFF" points="178.7,476.8 228.6,476.8 228.6,457.8 178.7,457.8 178.7,423 234.5,423 234.5,404 155.9,404 
	155.9,534.9 238.8,534.9 238.8,515.8 178.7,515.8 "/>
<polygon fill="#FFFFFF" points="304.1,403.9 281.4,403.9 281.4,534.7 361.2,534.7 361.2,515.8 304.1,515.8 "/>
<polygon fill="#FFFFFF" points="506,423 546.4,423 546.4,534.7 568.4,534.7 568.4,423 608.8,423 608.8,403.9 506,403.9 "/>
<rect x="643" y="403.9" fill="#FFFFFF" width="22.8" height="130.8"/>
<path fill="#FFFFFF" d="M960.7,486.9l-87.8-88v135.8h21.9v-82.5c3.8,3.8,87.8,87.9,87.8,87.9V403.9h-21.9V486.9z"/>
<path fill="#FFFFFF" d="M1067.4,458.9c-16.1-8-23.4-14-23.4-23.4c0-14.2,14.6-16,19-16c9.5-0.1,18.7,3.6,25.5,10.2l11.1-15.8
	c-12.3-9.7-23.6-12.5-36.6-12.5c-23.8,0-40.5,14.5-40.5,35.3c0,19.9,13.1,29.8,35.2,41.2c15.3,7.8,23,14.7,23,23.9
	c0,10.3-8.9,16.4-20.7,16.4c-12.4,0-22.2-4.2-32.1-13.4l-12.4,15.5c14.2,13.2,29.2,16.8,42.9,16.8c29.6,0,44.5-16.8,44.5-37.3
	C1102.9,478.8,1087,468.7,1067.4,458.9"/>
<path fill="#FFFFFF" d="M108.7,100.8c-10.6,12.1-24,18.1-39,18.1c-26.6,0-46.5-18-46.5-48.6C23.2,42.3,41.9,23,67,23
	c13.9,0,25.9,4.6,36.6,15.2l14.6-14.8C105.1,9.7,88.5,3.3,67.2,3.3C29.2,3.3,0,32.3,0,71c0,40.6,27.8,67.7,66.9,67.7
	c23,0,41.3-7.8,54.4-22.7L108.7,100.8z"/>
<path fill="#FFFFFF" d="M704.4,101.1c-10.5,12.1-22.9,17.8-39.8,17.8c-27.8,0-46.5-18-46.5-48.6c0-27.9,18.8-47.4,43.8-47.4
	c13.9,0,25.9,4.6,36.6,15.3l14.4-14.6C700.3,9.7,683.3,3.3,662,3.3c-39.1,0-67.2,29-67.2,67.7c0,40.6,27,67.7,66.9,67.7
	c24.1,0,42.1-7.4,55.2-22.4L704.4,101.1z"/>
<path fill="#FFFFFF" d="M356.5,137.6c30.9,0,48.7-16.8,53.8-39.2c1-5.4,1.5-11,1.5-16.5V4.9h-21.9v76.2c0,24.5-12.1,36.7-33.1,36.7
	c-21.7,0-34.7-12.6-34.7-36.7V4.9h-21.9v76.9c-0.1,5.5,0.5,11.1,1.5,16.5C306.8,120.8,325,137.6,356.5,137.6"/>
<path fill="#FFFFFF" d="M474,51.9c3.8,3.8,88.5,89.2,88.5,89.2V4.9h-21.3v84.3C537.4,85.4,452.7,0,452.7,0v135.8H474L474,51.9z"/>
<rect x="744.6" y="4.9" fill="#FFFFFF" width="22.7" height="130.8"/>
<polygon fill="#FFFFFF" points="892.8,116.9 835.1,116.9 835.1,4.9 812.4,4.9 812.4,135.8 892.8,135.8 "/>
<path fill="#FFFFFF" d="M204,21.6c-25.1,0-45.5,20-45.5,49.2s19.4,49.2,45.5,49.2s45.5-20,45.5-49.2S229.1,21.6,204,21.6
	 M135.4,70.8L135.4,70.8c0-39.3,29.4-68.6,68.5-68.6s68.5,29.3,68.5,68.6s-28.2,68.6-68.5,68.6S135.4,110.1,135.4,70.8"/>
<path fill="#FFFFFF" d="M188.9,221.1c-25.1,0-45.5,20-45.5,49.2s19.4,49.2,45.5,49.2s45.5-20,45.5-49.2S214.1,221.1,188.9,221.1
	 M120.4,270.3L120.4,270.3c0-39.3,29.4-68.6,68.5-68.6s68.6,29.3,68.5,68.6s-28.2,68.6-68.5,68.6S120.3,309.5,120.4,270.3"/>
<polygon fill="#FFFFFF" points="451.2,277.4 501.1,277.4 501.1,258.4 451.2,258.4 451.2,223.6 507,223.6 507,204.6 428.4,204.6 
	428.4,335.4 511.3,335.4 511.3,316.4 451.2,316.4 "/>
<rect x="555" y="204.6" fill="#FFFFFF" width="22.7" height="130.8"/>
<path fill="#FFFFFF" d="M316.5,264.2v-40.4h18c23.5,0,26.3,10.8,26.3,19c0,8-3.4,21.4-26.1,21.4L316.5,264.2z M348.2,280.8
	c0,0-0.2-0.2,1-0.3c19-2.2,33.6-17.4,33.6-38.3c0-22.9-17-37.6-43.4-37.6h-44.7v130.8h21.9v-54.2h5.3l44.1,54.2h27.8L348.2,280.8z"
	/>
<path fill="#FFFFFF" d="M456.9,484.9l-17-40.9l-17.1,40.9H456.9z M464.9,504.3h-50l-12.7,30.4h-22.9l61.3-139.4l61,139.4h-24.2
	L464.9,504.3z"/>
<path fill="#FFFFFF" d="M769.4,420.6c-25.1,0-45.5,19.9-45.5,49.2s19.4,49.2,45.5,49.2s45.5-20,45.5-49.2S794.6,420.6,769.4,420.6
	 M700.9,469.8L700.9,469.8c0-39.3,29.4-68.6,68.5-68.6s68.6,29.3,68.5,68.6s-28.2,68.6-68.5,68.6S700.8,509,700.9,469.8"/>
<path fill="#FFFFFF" d="M804.9,251.6c3.8,3.8,88.5,89.2,88.5,89.2V204.6h-21.3v84.3l-88.4-89.2v135.8h21.3L804.9,251.6z"/>
</svg>
