<?xml version="1.0" encoding="UTF-8"?>
<svg width="138px" height="37px" viewBox="0 0 138 37" version="1.1" xmlns="http://www.w3.org/2000/svg" xmlns:xlink="http://www.w3.org/1999/xlink">
    <!-- Generator: Sketch 46.2 (44496) - http://www.bohemiancoding.com/sketch -->
    <title>W101 logo</title>
    <desc>Created with Sketch.</desc>
    <defs>
        <polygon id="path-1" points="0 37 137.921098 37 137.921098 0.11285 0 0.11285"></polygon>
    </defs>
    <g id="Symbols" stroke="none" stroke-width="1" fill="none" fill-rule="evenodd">
        <g id="W101-logo">
            <g id="Page-1">
                <polygon id="Fill-1" fill="#00365C" points="28.9276416 1 24.3106116 16.9285467 23.9256235 18.7498269 23.6456751 16.9285467 19.203397 1 14.795975 1 10.3885531 16.9285467 10.0740624 18.7498269 9.68907443 16.9285467 5.0718874 1 0 1 7.45027177 26 12.5223162 26 16.6849598 11.6428104 16.9994505 9.92877754 17.3494253 11.6428104 21.4768988 26 26.5492572 26 34 1"></polygon>
                <g id="Group-44">
                    <path d="M38.1762576,16.4609763 C38.1762576,19.3115179 40.052122,21.4757096 42.7626915,21.4757096 C45.5060068,21.4757096 47.3120136,19.3115179 47.3120136,16.4609763 C47.3120136,13.5759013 45.5060068,11.4463971 42.7626915,11.4463971 C40.052122,11.4463971 38.1762576,13.5759013 38.1762576,16.4609763 Z M52.0021424,16.4609763 C52.0021424,21.8531096 48.0417763,25.5629763 42.7276068,25.5629763 C37.4464949,25.5629763 33.5219932,21.8531096 33.5219932,16.4609763 C33.5219932,11.0688429 37.4464949,7.39366375 42.7276068,7.39366375 C48.0417763,7.39366375 52.0021424,11.0688429 52.0021424,16.4609763 Z" id="Fill-2" fill="#00365C"></path>
                    <path d="M65.2586719,12.0647442 C63.8690041,12.0647442 62.79276,12.30509 61.7505092,13.0951942 C60.9168956,13.7476275 60.3957702,14.7440067 60.3259125,16.3237525 L60.3259125,25.1849442 L55.8104278,25.1849442 L55.8104278,7.771665 L59.7009363,7.771665 L60.1172753,10.5536025 C60.7082583,9.0079275 62.2716346,7.59992333 65.2586719,7.59992333 L65.2586719,12.0647442 Z" id="Fill-4" fill="#00365C"></path>
                    <mask id="mask-2" fill="white">
                        <use xlink:href="#path-1"></use>
                    </mask>
                    <g id="Clip-7"></g>
                    <polygon id="Fill-6" fill="#00365C" mask="url(#mask-2)" points="69.8429695 25.1848208 74.3584542 25.1848208 74.3584542 0.11285 69.8429695 0.11285"></polygon>
                    <path d="M82.7869641,16.4609763 C82.7869641,19.4491888 84.732842,21.3724179 87.2336827,21.3724179 C89.4568081,21.3724179 91.6800895,19.6895346 91.6800895,16.5641138 L91.6800895,16.3578388 C91.6460963,13.2669513 89.4218793,11.5840679 87.2336827,11.5840679 C84.7676149,11.5840679 82.7869641,13.5072971 82.7869641,16.4609763 L82.7869641,16.4609763 Z M96.1268081,25.1848054 L92.2362997,25.1848054 L91.8887268,22.8496429 C90.9164895,24.2576471 89.3181844,25.5629762 86.2951268,25.5629762 C81.5710047,25.5629762 78.1317641,21.5788471 78.1317641,16.4609762 C78.1317641,11.3437221 81.5710047,7.39366375 86.3300556,7.39366375 C88.8319878,7.39366375 90.6727675,8.42411375 91.6113234,9.66083875 L91.6113234,0.112834583 L96.1268081,0.112834583 L96.1268081,25.1848054 Z" id="Fill-8" fill="#00365C" mask="url(#mask-2)"></path>
                    <path d="M107.772511,24.86585 L105.480464,24.86585 L105.480464,5.49480833 L100.373996,5.49480833 L100.373996,3.57157917 C104.055711,3.57157917 105.375521,3.0908875 105.931576,0.8237125 L107.772511,0.8237125 L107.772511,24.86585 Z" id="Fill-9" fill="#F67332" mask="url(#mask-2)"></path>
                    <path d="M114.510186,12.8106642 C114.510186,19.0955767 116.38605,23.1829975 120.10285,23.1829975 C123.785657,23.1829975 125.661677,19.0955767 125.661677,12.8106642 C125.661677,6.5598225 123.785657,2.50662667 120.10285,2.50662667 C116.38605,2.50662667 114.510186,6.5598225 114.510186,12.8106642 M128.023738,12.8106642 C128.023738,20.3324558 125.209318,25.3123475 120.10285,25.3123475 C114.961609,25.3123475 112.182118,20.3324558 112.182118,12.8106642 C112.182118,5.3230975 114.961609,0.377585 120.10285,0.377585 C125.209318,0.377585 128.023738,5.3230975 128.023738,12.8106642" id="Fill-10" fill="#F67332" mask="url(#mask-2)"></path>
                    <path d="M137.92102,24.86585 L135.628973,24.86585 L135.628973,5.49480833 L130.522505,5.49480833 L130.522505,3.57157917 C134.20422,3.57157917 135.524031,3.0908875 136.080085,0.8237125 L137.92102,0.8237125 L137.92102,24.86585 Z" id="Fill-11" fill="#F67332" mask="url(#mask-2)"></path>
                    <polygon id="Fill-12" fill="#9BABAC" mask="url(#mask-2)" points="10.6764597 30.3883004 8.40234441 30.3883004 8.40234441 32.1257588 10.3345003 32.1257588 10.3345003 32.8017796 8.40234441 32.8017796 8.40234441 35.2231212 7.67866305 35.2231212 7.67866305 29.7199879 10.6764597 29.7199879"></polygon>
                    <path d="M13.2292414,31.8977463 C12.9111397,31.8977463 12.6409092,31.9842338 12.418238,32.1886588 C12.2035193,32.3850671 12.0603736,32.6917046 12.052421,33.1241421 L12.052421,35.2231212 L11.3685024,35.2231212 L11.3685024,31.2608838 L11.9808481,31.2608838 L12.0285634,31.9526296 C12.1637566,31.5911088 12.5373702,31.2215713 13.2292414,31.2215713 L13.2292414,31.8977463 Z" id="Fill-13" fill="#9BABAC" mask="url(#mask-2)"></path>
                    <path d="M14.3268637,33.2420333 C14.3268637,34.0597333 14.8596841,34.6807167 15.6627349,34.6807167 C16.4579892,34.6807167 16.9747485,34.0597333 16.9747485,33.2420333 C16.9747485,32.416625 16.4579892,31.80335 15.6627349,31.80335 C14.8596841,31.80335 14.3268637,32.416625 14.3268637,33.2420333 M17.6825247,33.2420333 C17.6825247,34.4449958 16.8476637,35.3097167 15.6547824,35.3097167 C14.4541044,35.3097167 13.6190875,34.4449958 13.6190875,33.2420333 C13.6190875,32.039225 14.4541044,31.1745042 15.6547824,31.1745042 C16.8476637,31.1745042 17.6825247,32.039225 17.6825247,33.2420333" id="Fill-14" fill="#9BABAC" mask="url(#mask-2)"></path>
                    <path d="M24.0124054,32.6603008 L24.0124054,35.2231675 L23.3286427,35.2231675 L23.3286427,32.7703758 C23.3286427,32.1571008 23.0423512,31.8348925 22.5572461,31.8348925 C22.0404868,31.8348925 21.6508122,32.2750383 21.6349071,33.0455633 L21.6349071,35.2231675 L20.9509885,35.2231675 L20.9509885,32.7703758 C20.9509885,32.1571008 20.6646969,31.8348925 20.1797478,31.8348925 C19.65488,31.8348925 19.2572529,32.2909175 19.2572529,33.1004467 L19.2572529,35.2231675 L18.5734902,35.2231675 L18.5734902,31.26093 L19.18568,31.26093 L19.2254427,31.8032883 C19.4083512,31.4573383 19.7900732,31.1744425 20.3386427,31.1744425 C20.9271308,31.1744425 21.3168054,31.465355 21.5076664,31.9292425 C21.7144325,31.5361175 22.0959986,31.1744425 22.7162969,31.1744425 C23.5831241,31.1744425 24.0124054,31.7877175 24.0124054,32.6603008" id="Fill-15" fill="#9BABAC" mask="url(#mask-2)"></path>
                    <path d="M27.7027749,31.2608992 L28.7286529,31.2608992 L28.7286529,31.889745 L27.6948224,31.889745 L27.6789173,34.01262 C27.6789173,34.4449033 27.7902529,34.6570367 28.2515003,34.6570367 C28.4741715,34.6570367 28.6092088,34.6257408 28.7286529,34.5864283 L28.7286529,35.1916867 C28.6092088,35.2390158 28.4264563,35.2783283 28.1322122,35.2783283 C27.3767207,35.2783283 26.987202,34.9481033 26.9949986,34.1382658 L27.0109037,31.889745 L26.2635207,31.889745 L26.2635207,31.2608992 L27.0109037,31.2608992 L27.0190122,30.2702242 L27.7107275,30.2702242 L27.7027749,31.2608992 Z" id="Fill-16" fill="#9BABAC" mask="url(#mask-2)"></path>
                    <path d="M30.2634624,31.7562212 C30.4145607,31.4495837 30.7802217,31.1745504 31.3607573,31.1745504 C32.2194759,31.1745504 32.6648183,31.7876712 32.6648183,32.6602546 L32.6648183,35.2231212 L31.9731031,35.2231212 L31.9731031,32.7703296 C31.9731031,32.1572087 31.678859,31.8348462 31.1937539,31.8348462 C30.669042,31.8348462 30.2634624,32.2908712 30.2634624,33.1005546 L30.2634624,35.2231212 L29.5795437,35.2231212 L29.5795437,29.4842671 L30.2634624,29.4842671 L30.2634624,31.7562212 Z" id="Fill-17" fill="#9BABAC" mask="url(#mask-2)"></path>
                    <path d="M34.1999864,32.9040383 L36.5456746,32.9040383 C36.537722,32.2278633 36.0844271,31.8032883 35.4165695,31.8032883 C34.7248542,31.8032883 34.2795119,32.2750383 34.1999864,32.9040383 M37.2375458,33.1870883 L37.2375458,33.5094508 L34.1920339,33.5094508 C34.2477017,34.2405092 34.7487119,34.680655 35.4324746,34.680655 C35.9652949,34.680655 36.3548136,34.4527967 36.5138644,34.0360842 L37.1977831,34.0360842 C36.9592068,34.82218 36.3389085,35.309655 35.4165695,35.309655 C34.2874644,35.309655 33.4842576,34.4999717 33.4842576,33.2498342 C33.4842576,32.0548883 34.2477017,31.1744425 35.4165695,31.1744425 C36.4661492,31.1744425 37.2375458,31.8504633 37.2375458,33.1870883" id="Fill-18" fill="#9BABAC" mask="url(#mask-2)"></path>
                    <path d="M44.7841966,31.3552954 L43.9811458,31.3552954 C43.750522,30.7184329 43.2256542,30.2859954 42.3112678,30.2859954 C41.1342915,30.2859954 40.3153356,31.2137704 40.3153356,32.4716162 C40.3153356,33.7215996 41.1342915,34.6570829 42.3190644,34.6570829 C43.2415593,34.6570829 43.7901288,34.1933496 44.0128,33.5643496 L44.7921492,33.5643496 C44.482,34.6729621 43.6312339,35.3253954 42.3190644,35.3253954 C40.7048542,35.3253954 39.56,34.1068621 39.56,32.4716162 C39.56,30.8363704 40.7048542,29.6176829 42.3112678,29.6176829 C43.6232814,29.6176829 44.4740475,30.2938579 44.7841966,31.3552954" id="Fill-19" fill="#9BABAC" mask="url(#mask-2)"></path>
                    <path d="M46.0172617,33.2420333 C46.0172617,34.0597333 46.550082,34.6807167 47.3531329,34.6807167 C48.1483871,34.6807167 48.6651464,34.0597333 48.6651464,33.2420333 C48.6651464,32.416625 48.1483871,31.80335 47.3531329,31.80335 C46.550082,31.80335 46.0172617,32.416625 46.0172617,33.2420333 M49.3729227,33.2420333 C49.3729227,34.4449958 48.5380617,35.3097167 47.3451803,35.3097167 C46.1445024,35.3097167 45.3094854,34.4449958 45.3094854,33.2420333 C45.3094854,32.039225 46.1445024,31.1745042 47.3451803,31.1745042 C48.5380617,31.1745042 49.3729227,32.039225 49.3729227,33.2420333" id="Fill-20" fill="#9BABAC" mask="url(#mask-2)"></path>
                    <path d="M53.2537166,35.2231675 L52.6413708,35.2231675 L52.6016081,34.680655 C52.4188556,35.0582092 52.0530386,35.3098092 51.4963607,35.3098092 C50.6295336,35.3098092 50.2082047,34.7043967 50.2082047,33.8237967 L50.2082047,31.26093 L50.8919675,31.26093 L50.8919675,33.7137217 C50.8919675,34.3348592 51.1703064,34.6570675 51.6554115,34.6570675 C52.1721708,34.6570675 52.569798,34.22463 52.569798,33.4621217 L52.569798,31.26093 L53.2537166,31.26093 L53.2537166,35.2231675 Z" id="Fill-21" fill="#9BABAC" mask="url(#mask-2)"></path>
                    <path d="M57.5481051,32.6603008 L57.5481051,35.2231675 L56.8562339,35.2231675 L56.8562339,32.7703758 C56.8562339,32.1571008 56.5621458,31.8348925 56.0770407,31.8348925 C55.5521729,31.8348925 55.1467492,32.2909175 55.1467492,33.1004467 L55.1467492,35.2231675 L54.4628305,35.2231675 L54.4628305,31.26093 L55.0751763,31.26093 L55.114939,31.8032883 C55.2976915,31.4573383 55.6794136,31.1744425 56.2440441,31.1744425 C57.1027627,31.1744425 57.5481051,31.7877175 57.5481051,32.6603008" id="Fill-22" fill="#9BABAC" mask="url(#mask-2)"></path>
                    <path d="M62.0968658,32.4951421 L61.4131031,32.4951421 C61.2540522,32.0549963 60.84052,31.8033962 60.3236047,31.8033962 C59.6080319,31.8033962 59.0752115,32.4086546 59.0752115,33.2499421 C59.0752115,34.0674879 59.6080319,34.6807629 60.3395098,34.6807629 C60.8484725,34.6807629 61.2699573,34.4134379 61.4131031,33.9888629 L62.1048183,33.9888629 C61.8900997,34.8537379 61.1904319,35.3097629 60.3156522,35.3097629 C59.1865471,35.3097629 58.3674353,34.4448879 58.3674353,33.2499421 C58.3674353,32.0549963 59.1865471,31.1745504 60.3156522,31.1745504 C61.1983844,31.1745504 61.9060047,31.6304212 62.0968658,32.4951421" id="Fill-23" fill="#9BABAC" mask="url(#mask-2)"></path>
                    <path d="M63.0435458,35.2232292 L63.7273085,35.2232292 L63.7273085,31.2609917 L63.0435458,31.2609917 L63.0435458,35.2232292 Z M63.8626576,30.0423042 C63.8626576,30.2939042 63.647939,30.4983292 63.3855051,30.4983292 C63.1230712,30.4983292 62.9163051,30.2939042 62.9163051,30.0423042 C62.9163051,29.7829958 63.1230712,29.5784167 63.3855051,29.5784167 C63.647939,29.5784167 63.8626576,29.7829958 63.8626576,30.0423042 L63.8626576,30.0423042 Z" id="Fill-24" fill="#9BABAC" mask="url(#mask-2)"></path>
                    <polygon id="Fill-25" fill="#9BABAC" mask="url(#mask-2)" points="64.9839661 35.2232292 65.6677288 35.2232292 65.6677288 29.4842208 64.9839661 29.4842208"></polygon>
                    <path d="M68.9201939,33.2420333 C68.9201939,34.0597333 69.4530142,34.6807167 70.256221,34.6807167 C71.0513193,34.6807167 71.5682346,34.0597333 71.5682346,33.2420333 C71.5682346,32.416625 71.0513193,31.80335 70.256221,31.80335 C69.4530142,31.80335 68.9201939,32.416625 68.9201939,33.2420333 M72.2758549,33.2420333 C72.2758549,34.4449958 71.4409939,35.3097167 70.2481125,35.3097167 C69.0474346,35.3097167 68.2124176,34.4449958 68.2124176,33.2420333 C68.2124176,32.039225 69.0474346,31.1745042 70.2481125,31.1745042 C71.4409939,31.1745042 72.2758549,32.039225 72.2758549,33.2420333" id="Fill-26" fill="#9BABAC" mask="url(#mask-2)"></path>
                    <path d="M76.2521261,32.6603008 L76.2521261,35.2231675 L75.5602549,35.2231675 L75.5602549,32.7703758 C75.5602549,32.1571008 75.2661668,31.8348925 74.7809058,31.8348925 C74.2561939,31.8348925 73.8507702,32.2909175 73.8507702,33.1004467 L73.8507702,35.2231675 L73.1668515,35.2231675 L73.1668515,31.26093 L73.7791973,31.26093 L73.81896,31.8032883 C74.0017125,31.4573383 74.3834346,31.1744425 74.9480651,31.1744425 C75.8067837,31.1744425 76.2521261,31.7877175 76.2521261,32.6603008" id="Fill-27" fill="#9BABAC" mask="url(#mask-2)"></path>
                    <polygon id="Fill-28" fill="#9BABAC" mask="url(#mask-2)" points="82.0494827 30.3883004 79.7752115 30.3883004 79.7752115 32.1257588 81.7075234 32.1257588 81.7075234 32.8017796 79.7752115 32.8017796 79.7752115 35.2231212 79.0515302 35.2231212 79.0515302 29.7199879 82.0494827 29.7199879"></polygon>
                    <path d="M83.1629322,33.2420333 C83.1629322,34.0597333 83.6957525,34.6807167 84.4988034,34.6807167 C85.2940576,34.6807167 85.8108169,34.0597333 85.8108169,33.2420333 C85.8108169,32.416625 85.2940576,31.80335 84.4988034,31.80335 C83.6957525,31.80335 83.1629322,32.416625 83.1629322,33.2420333 M86.5187492,33.2420333 C86.5187492,34.4449958 85.6837322,35.3097167 84.4910068,35.3097167 C83.2901729,35.3097167 82.4553119,34.4449958 82.4553119,33.2420333 C82.4553119,32.039225 83.2901729,31.1745042 84.4910068,31.1745042 C85.6837322,31.1745042 86.5187492,32.039225 86.5187492,33.2420333" id="Fill-29" fill="#9BABAC" mask="url(#mask-2)"></path>
                    <path d="M89.3179973,31.8977463 C88.9998956,31.8977463 88.7296651,31.9842338 88.5069939,32.1886588 C88.2922753,32.3850671 88.1491295,32.6917046 88.141021,33.1241421 L88.141021,35.2231212 L87.4572583,35.2231212 L87.4572583,31.2608838 L88.0696041,31.2608838 L88.1173193,31.9526296 C88.2525125,31.5911088 88.6261261,31.2215713 89.3179973,31.2215713 L89.3179973,31.8977463 Z" id="Fill-30" fill="#9BABAC" mask="url(#mask-2)"></path>
                    <path d="M90.4235254,32.9040383 L92.7693695,32.9040383 C92.761261,32.2278633 92.308122,31.8032883 91.6402644,31.8032883 C90.9483932,31.8032883 90.5030508,32.2750383 90.4235254,32.9040383 M93.4610847,33.1870883 L93.4610847,33.5094508 L90.4155729,33.5094508 C90.4712407,34.2405092 90.9722508,34.680655 91.6560136,34.680655 C92.1888339,34.680655 92.5783525,34.4527967 92.7375593,34.0360842 L93.421478,34.0360842 C93.1827458,34.82218 92.5626034,35.309655 91.6402644,35.309655 C90.5110034,35.309655 89.7077966,34.4999717 89.7077966,33.2498342 C89.7077966,32.0548883 90.4712407,31.1744425 91.6402644,31.1744425 C92.6896881,31.1744425 93.4610847,31.8504633 93.4610847,33.1870883" id="Fill-31" fill="#9BABAC" mask="url(#mask-2)"></path>
                    <path d="M94.4554644,35.2232292 L95.1392271,35.2232292 L95.1392271,31.2609917 L94.4554644,31.2609917 L94.4554644,35.2232292 Z M95.2744203,30.0423042 C95.2744203,30.2939042 95.0597017,30.4983292 94.7974237,30.4983292 C94.5349898,30.4983292 94.3282237,30.2939042 94.3282237,30.0423042 C94.3282237,29.7829958 94.5349898,29.5784167 94.7974237,29.5784167 C95.0597017,29.5784167 95.2744203,29.7829958 95.2744203,30.0423042 L95.2744203,30.0423042 Z" id="Fill-32" fill="#9BABAC" mask="url(#mask-2)"></path>
                    <path d="M96.8966922,32.59737 C96.8966922,33.053395 97.230699,33.4072075 97.7555668,33.4072075 C98.2883871,33.4072075 98.6144414,33.053395 98.6144414,32.59737 C98.6144414,32.12562 98.2883871,31.7719617 97.7555668,31.7719617 C97.2227464,31.7719617 96.8966922,32.12562 96.8966922,32.59737 L96.8966922,32.59737 Z M97.4136075,35.1838242 C97.1114108,35.1997033 96.8332278,35.3567992 96.8332278,35.7420617 C96.8332278,36.1744992 97.230699,36.4025117 97.9066651,36.4025117 C98.5268075,36.4025117 98.9005769,36.1664825 98.9005769,35.6948867 C98.9005769,35.3253492 98.622238,35.1838242 98.1770515,35.1838242 L97.4136075,35.1838242 Z M99.7911058,31.8584492 L99.091438,31.8584492 C99.2186786,32.0707367 99.2902515,32.3223367 99.2902515,32.59737 C99.2902515,33.38362 98.6938108,34.0046033 97.7635193,34.0046033 C97.4295125,34.0046033 97.1352685,33.9259783 96.8966922,33.7923158 C96.8014176,33.8866658 96.7376414,34.01262 96.7376414,34.1854408 C96.7376414,34.4449033 96.9445634,34.5864283 97.2466041,34.5864283 L98.3120888,34.5864283 C99.1630108,34.5864283 99.5765431,35.0029867 99.5765431,35.6634367 C99.5765431,36.5047242 98.9323871,37.0000617 97.9066651,37.0000617 C96.7696075,37.0000617 96.1572617,36.5440367 96.1572617,35.7656492 C96.1572617,35.3884033 96.3640278,35.1761158 96.5946515,35.0501617 C96.3242651,34.9166533 96.0618312,34.6257408 96.0618312,34.2247533 C96.0618312,33.8630783 96.2367871,33.588045 96.4753634,33.41507 C96.30836,33.1870575 96.220882,32.9040075 96.220882,32.59737 C96.220882,31.77967 96.8251193,31.1745658 97.7635193,31.1745658 C97.9702854,31.1745658 98.1609905,31.2058617 98.3359464,31.2608992 L99.7911058,31.2608992 L99.7911058,31.8584492 Z" id="Fill-33" fill="#9BABAC" mask="url(#mask-2)"></path>
                    <path d="M103.441432,32.6603008 L103.441432,35.2231675 L102.749561,35.2231675 L102.749561,32.7703758 C102.749561,32.1571008 102.455473,31.8348925 101.970212,31.8348925 C101.4455,31.8348925 101.040076,32.2909175 101.040076,33.1004467 L101.040076,35.2231675 L100.356157,35.2231675 L100.356157,31.26093 L100.968503,31.26093 L101.008266,31.8032883 C101.191018,31.4573383 101.57274,31.1744425 102.137371,31.1744425 C102.996089,31.1744425 103.441432,31.7877175 103.441432,32.6603008" id="Fill-34" fill="#9BABAC" mask="url(#mask-2)"></path>
                    <path d="M106.964517,30.3883004 L106.964517,32.3457546 L107.759772,32.3457546 C108.403772,32.3457546 108.849114,31.9999588 108.849114,31.3788213 C108.849114,30.7499754 108.411724,30.3883004 107.759772,30.3883004 L106.964517,30.3883004 Z M109.580592,31.3788213 C109.580592,32.1020171 109.183121,32.6445296 108.52306,32.8725421 L109.819324,35.2231212 L108.99226,35.2231212 L107.775677,32.9904796 L106.964517,32.9904796 L106.964517,35.2231212 L106.240836,35.2231212 L106.240836,29.7199879 L107.759772,29.7199879 C108.872972,29.7199879 109.580592,30.3802838 109.580592,31.3788213 L109.580592,31.3788213 Z" id="Fill-35" fill="#9BABAC" mask="url(#mask-2)"></path>
                    <path d="M110.972614,32.9040383 L113.318302,32.9040383 C113.31035,32.2278633 112.857055,31.8032883 112.189197,31.8032883 C111.497326,31.8032883 111.05214,32.2750383 110.972614,32.9040383 M114.010018,33.1870883 L114.010018,33.5094508 L110.964506,33.5094508 C111.020329,34.2405092 111.52134,34.680655 112.204946,34.680655 C112.737767,34.680655 113.127441,34.4527967 113.286492,34.0360842 L113.970411,34.0360842 C113.731679,34.82218 113.111536,35.309655 112.189197,35.309655 C111.060092,35.309655 110.256885,34.4999717 110.256885,33.2498342 C110.256885,32.0548883 111.020329,31.1744425 112.189197,31.1744425 C113.238777,31.1744425 114.010018,31.8504633 114.010018,33.1870883" id="Fill-36" fill="#9BABAC" mask="url(#mask-2)"></path>
                    <polygon id="Fill-37" fill="#9BABAC" mask="url(#mask-2)" points="115.004366 35.2232292 115.688285 35.2232292 115.688285 29.4842208 115.004366 29.4842208"></polygon>
                    <path d="M117.930793,33.6429592 C117.628752,33.7137217 117.374271,33.8318133 117.374271,34.1854717 C117.374271,34.4999717 117.596786,34.680655 117.98646,34.680655 C118.320467,34.680655 118.614711,34.53913 118.79762,34.2876842 C118.932813,34.1068467 119.028087,33.8318133 119.028087,33.5564717 L119.028087,33.4072383 L117.930793,33.6429592 Z M119.719959,32.5974008 L119.719959,35.2231675 L119.09966,35.2231675 L119.06785,34.680655 C118.869193,35.0344675 118.439755,35.3098092 117.851267,35.3098092 C117.151599,35.3098092 116.682399,34.8852342 116.682399,34.1933342 C116.682399,33.5014342 117.175301,33.1635008 117.803708,33.0455633 L119.028087,32.8175508 L119.028087,32.6209883 C119.028087,32.0548883 118.765654,31.8032883 118.288657,31.8032883 C117.851267,31.8032883 117.469545,32.0393175 117.469545,32.5266383 L116.793735,32.5266383 C116.817593,31.7639758 117.406081,31.1744425 118.288657,31.1744425 C119.179186,31.1744425 119.719959,31.6776425 119.719959,32.5974008 L119.719959,32.5974008 Z" id="Fill-38" fill="#9BABAC" mask="url(#mask-2)"></path>
                    <path d="M121.755856,31.2608992 L122.781734,31.2608992 L122.781734,31.889745 L121.747904,31.889745 L121.732155,34.01262 C121.732155,34.4449033 121.84349,34.6570367 122.304582,34.6570367 C122.527253,34.6570367 122.66229,34.6257408 122.781734,34.5864283 L122.781734,35.1916867 C122.66229,35.2390158 122.479538,35.2783283 122.185294,35.2783283 C121.429802,35.2783283 121.040283,34.9481033 121.048236,34.1382658 L121.063985,31.889745 L120.316758,31.889745 L120.316758,31.2608992 L121.063985,31.2608992 L121.071938,30.2702242 L121.763965,30.2702242 L121.755856,31.2608992 Z" id="Fill-39" fill="#9BABAC" mask="url(#mask-2)"></path>
                    <path d="M123.656576,35.2232292 L124.340495,35.2232292 L124.340495,31.2609917 L123.656576,31.2609917 L123.656576,35.2232292 Z M124.475688,30.0423042 C124.475688,30.2939042 124.260969,30.4983292 123.99838,30.4983292 C123.736102,30.4983292 123.529492,30.2939042 123.529492,30.0423042 C123.529492,29.7829958 123.736102,29.5784167 123.99838,29.5784167 C124.260969,29.5784167 124.475688,29.7829958 124.475688,30.0423042 L124.475688,30.0423042 Z" id="Fill-40" fill="#9BABAC" mask="url(#mask-2)"></path>
                    <path d="M125.954752,33.2420333 C125.954752,34.0597333 126.487572,34.6807167 127.290623,34.6807167 C128.085721,34.6807167 128.602637,34.0597333 128.602637,33.2420333 C128.602637,32.416625 128.085721,31.80335 127.290623,31.80335 C126.487572,31.80335 125.954752,32.416625 125.954752,33.2420333 M129.310413,33.2420333 C129.310413,34.4449958 128.475396,35.3097167 127.282671,35.3097167 C126.081837,35.3097167 125.246976,34.4449958 125.246976,33.2420333 C125.246976,32.039225 126.081837,31.1745042 127.282671,31.1745042 C128.475396,31.1745042 129.310413,32.039225 129.310413,33.2420333" id="Fill-41" fill="#9BABAC" mask="url(#mask-2)"></path>
                    <path d="M133.286606,32.6603008 L133.286606,35.2231675 L132.594735,35.2231675 L132.594735,32.7703758 C132.594735,32.1571008 132.300647,31.8348925 131.815386,31.8348925 C131.290674,31.8348925 130.88525,32.2909175 130.88525,33.1004467 L130.88525,35.2231675 L130.201332,35.2231675 L130.201332,31.26093 L130.813677,31.26093 L130.85344,31.8032883 C131.036193,31.4573383 131.417915,31.1744425 131.982545,31.1744425 C132.841264,31.1744425 133.286606,31.7877175 133.286606,32.6603008" id="Fill-42" fill="#9BABAC" mask="url(#mask-2)"></path>
                    <path d="M136.889186,32.4243796 L136.189518,32.4243796 C136.181409,32.0078212 135.982752,31.8033962 135.553315,31.8033962 C135.13183,31.8033962 134.940969,32.0471338 134.940969,32.3378921 C134.940969,32.6445296 135.10002,32.7703296 135.69646,32.9118546 C136.650609,33.1320046 137.008474,33.4620754 137.008474,34.0989379 C137.008474,34.8693088 136.404237,35.3097629 135.60103,35.3097629 C134.670582,35.3097629 134.153823,34.7908379 134.137762,34.0204671 L134.837742,34.0204671 C134.845694,34.4370254 135.115925,34.6807629 135.616935,34.6807629 C136.078182,34.6807629 136.30865,34.4527504 136.30865,34.1461129 C136.30865,33.8158879 136.133694,33.6587921 135.473789,33.5094046 C134.638772,33.3205504 134.241301,33.0297921 134.241301,32.3772046 C134.241301,31.7483587 134.702548,31.1745504 135.56922,31.1745504 C136.348413,31.1745504 136.873281,31.6775962 136.889186,32.4243796" id="Fill-43" fill="#9BABAC" mask="url(#mask-2)"></path>
                </g>
            </g>
        </g>
    </g>
</svg>